<svg width="17" height="17" viewBox="0 0 17 17" fill="none" xmlns="http://www.w3.org/2000/svg">
<g clip-path="url(#clip0_2448_42)">
<path d="M8.5 0C3.81296 0 0 3.81296 0 8.5C0 13.187 3.81296 17 8.5 17C13.187 17 17 13.187 17 8.5C17 3.81296 13.187 0 8.5 0ZM12.8917 7.446L9.75658 10.5237C9.20196 11.0677 8.48796 11.339 7.77325 11.339C7.06633 11.339 6.35942 11.0727 5.80692 10.5393L4.46179 9.21683C4.18271 8.94271 4.17917 8.49433 4.45329 8.21525C4.72671 7.93546 5.1765 7.93192 5.45487 8.20675L6.79575 9.52496C7.34542 10.0562 8.21313 10.0534 8.76562 9.51221L11.9 6.43521C12.1784 6.16037 12.6253 6.16533 12.9016 6.44442C13.1757 6.7235 13.1715 7.17188 12.8917 7.446Z" fill="#008E07"/>
</g>
<defs>
<clipPath id="clip0_2448_42">
<rect width="17" height="17" fill="white"/>
</clipPath>
</defs>
</svg>
