<svg width="500" height="724" viewBox="0 0 500 724" fill="none" xmlns="http://www.w3.org/2000/svg">
<path d="M485.3 579.846L485.919 578.808L486.152 578.704L486.9 577.617L488.811 575.96L494.002 572.592L496.017 571.529L500 569.896L499.985 564.207L497.684 564.23L497.09 564.023L495.409 564.047L494.841 564.254L492.488 563.941L490.42 563.991L488.688 563.783L488.094 563.368L487.63 561.351L484.899 556.685L484.207 555.986L482.083 554.906L481.492 554.44L480.904 553.355L478.021 545.255L473.781 545.176L467.627 545.507L465.301 542.274L463.362 539.997L460.933 538.185L458.967 537.356L455.554 536.941L454.757 536.704L454.412 536.155L454.018 534.862L453.326 534.163L451.728 533.138L451.107 533.008L450.228 532L449.324 529.594L447.876 527.81L446.816 524.188L446.662 522.326L447.981 520.569L449.042 519.457L449.223 518.656V517.518L448.887 516.742L447.775 515.837L446.456 515.939L444.853 516.405L443.714 516.533L442.576 515.938L443.455 515.136L443.223 514.516L442.447 513.352L441.516 512.913L439.99 513.429L439.447 513.067L439.292 512.575L438.672 511.851L438.361 511.024L437.689 510.558L437.431 508.51L438.379 503.828L438.144 502.717L438.531 501.604L438.114 499.925L438.679 498.218L438.524 497.778L437.928 497.521L436.712 497.446L436.116 496.878L435.754 496.774L434.279 496.933L433.159 496.165L432.182 495.85L430.812 496.008L430.371 495.595L430.214 494.948L430.29 494.148L430.082 493.527L429.764 493.242L430.136 492.639L429.696 491.682L429.981 491.32H430.343L431.585 492.148L431.818 491.865L431.663 491.27L429.929 490.21L428.558 488.891L427.575 488.555L427.213 488.761L426.618 488.632L426.332 488.786H425.634L425.375 486.848L426.125 484.65L426.592 483.849L427.238 483.461L427.937 482.144L428.714 480.256L428.765 478.835L428.429 477.878L427.6 476.818L426.98 476.354L425.177 475.943L423.875 475.034L424.056 472.966L424.521 472.707L424.805 472.113L426.618 471.209L428.664 469.251L431.819 469.116L432.932 468.496L433.423 467.694L433.449 466.221L432.958 462.68L433.165 461.802L434.615 460.2L435.08 458.934L434.822 458.235L433.735 456.555L433.373 455.47L433.347 454.358L434.201 452.368L435.935 449.862L437.075 446.657L438.37 438.802L438.396 437.691L439.846 435.056L440.027 434.229L439.407 431.774L439.148 429.423L439.2 427.485L438.657 425.339L437.983 424.746L436.611 424.125L435.165 423.926L433.271 424.925L431.537 425.545L430.267 425.622L428.973 425.261L427.989 424.485L427.368 424.356L426.151 423.116L425.867 422.443L425.555 422.159L425.452 420.532L424.985 418.982L424.468 418.464L423.743 418.775L423.574 417.992L422.426 417.071L423.149 416.113L423.899 415.622L424.131 414.82L423.193 410.483L424.131 406.244L424.312 403.145L426.565 401.75L427.368 401.647L427.783 400.976L429.13 400.691L430.994 399.839V399.271L430.606 398.057V396.198L431.176 393.175L432.316 389.715L433.481 389.586L434.543 389.844L435.294 390.31L435.423 389.922L435.087 387.933L434.828 387.545L434.388 385.299L434.517 384.343L435.035 383.646L435.968 383.517L436.201 383.285L436.098 380.96L435.735 380.496L435.01 380.391L434.932 378.507L435.243 376.569L435.218 375.614L435.995 372.438L435.762 371.973L435.192 368.72L434.985 365.697L434.492 365.337L433.173 359.552L433.587 356.775L434.278 356.357L433.135 352.444L433.284 351.539L432.561 348.424L432.497 346.746V343.264L432.95 341.532L434.29 340.645L434.564 339.224L434.53 337.986L434.343 337.265L432.75 335.469L432.536 334.619L432.891 333.663L436.169 331.936L436.368 330.696L437.011 330.073L437.727 328.906L438.056 327.871L438.341 327.689L440.906 327.594L441.887 327.225L443.069 325.746L444.023 325.146L444.904 325.089L446.149 325.261L447.546 324.838L447.851 324.192L448.124 322.229L448.052 319.364L446.955 318.314L447.188 316.985L446.797 316.935L446.407 316.627L446.221 315.88L446.315 313.557L445.639 313.122L445.581 312.141L444.881 311.938L444.493 312.017L443.061 310.655L440.644 309.505L440.12 308.475L439.713 304.657L439.028 302.518L438.375 301.463L436.606 300.49L436.264 299.563L435.302 298.999L432.003 298.164L431.118 297.601L428.848 294.953L427.756 294.365L426.873 294.214L426.509 293.958L425.877 292.284L425.307 292.261L424.429 292.989L423.676 292.837L423.204 292.04L422.658 291.785L422.293 291.373L421.816 289.724L421.295 289.365L419.481 289.529L418.415 288.58L415.26 283.391L414.836 282.361L413.525 280.668L410.023 274.474L409.367 273.574L408.919 272.512L409.313 272.212L409.517 271.668L410.476 271.43L410.63 271.12L410.499 270.811L409.455 269.887L409.217 269.166L409.395 268.39L409.859 267.897L410.507 267.635L411.831 267.706L412.504 267.444L413.102 267.517L414.121 268.699L414.822 268.644L415.285 267.918L414.682 267.017L414.889 266.759L415.512 266.704L416.364 265.976L416.857 265.793L417.273 265.867L418.293 267.309L418.683 267.41L421.479 265.846L421.917 265.378L422.141 263.596L422.497 262.251L424.125 260.848L424.331 260.46L424.249 259.712L424.402 259.143L424.712 258.831L425.309 258.802L425.462 258.311L425.25 257.46L424.439 256.432L424.098 255.736L424.038 253.293L423.215 251.831L422.612 251.216L417.373 242.321L417.052 241.239L416.931 239.071L417.321 235.866L417.906 234.286L418.446 233.559L418.758 233.531L419.145 233.192L419.5 232.001L418.69 228.366L418.895 227.9L420.834 227.021L422.261 226.118L423.95 222.774L425.187 221.266L425.157 220.802L424.005 219.674L422.475 216.922L422.796 214.801L423.18 214.023L426.013 210.36L427.28 209.447L427.586 208.567L427.073 206.117L427.225 205.625L428.206 204.662L428.771 203.651L429.349 200.908L429.284 199.126L428.464 197.479L427.651 196.659L425.51 195.744L424.721 194.743L424.094 194.283L422.223 194.736L422.34 193.03L422.544 192.59L422.171 191.64L421.054 191.11L420.388 190.516L419.945 190.467L419.136 189.981L417.807 189.678L416.996 189.011L416.318 188.833L414.758 189.074L413.584 188.539L412.881 188.594L411.869 189.091L409.477 189.543L409.323 189.777L408.826 189.365L406.949 189.092L405.779 189.099L404.326 190.038L404.356 190.45L404.775 191.094L404.675 191.766L404.261 192.182L403.775 193.58L403.208 194.307L402.064 194.752L401.258 194.808L397.315 196.692L396.691 196.851L395.181 196.705L394.526 196.037L393.589 196.017L393.354 195.864L393.56 195.449L393.4 194.984L391.541 193.136L391.243 191.356L391.317 190.658L391.705 190.346L392.408 190.289L393.506 191.083L394.702 191.051L395.615 191.278L396.159 190.912L396.624 190.264L397.039 190.054L398.599 189.787L399.03 189.227L399.843 188.823L400.229 188.357L400.356 187.762L400.042 187.35L399.623 187.198L398.343 186.224L397.639 186.098L395.688 186.421L393.579 186.355L392.666 185.923L392.245 185.253L391.842 183.318L391.89 182.802L392.356 182.205L392.449 180.627L392.759 180.212L393.618 180.232L394.899 181.052L395.498 180.996L397.809 179.923L399.865 180.014L400.802 179.802L402.442 179.741L405.465 180.394L406.818 180L407.751 179.4L408.319 178.57L408.394 178.078L407.737 177.205L407.051 175.477L406.496 174.664L406.492 173.462L407.224 171.759L407.221 171.172L406.706 169.927L406.158 169.658L405.783 169.167L405.084 168.901L404.647 165.467L404.014 164.23L403.438 163.691L402.082 163.595L401.638 163.34L401.427 162.875L401.991 161.529L402.475 159.666L402.102 158.298L402.387 157.961L402.959 157.906L403.191 157.388L402.714 156.022L403.15 154.985L403.719 154.362L404.077 153.016L405.291 151.304L405.619 149.57L404.94 144.975L405.235 141.95L405.517 141.199L406.139 140.55L406.632 140.288L408.142 140.022L408.765 139.527L408.997 138.931L408.809 138.132L406.684 135.844L405.763 134.479L405.6 133.499L406.186 131.014L406.126 129.929L405.678 129.027L405.701 128.665L406.144 128.43L406.718 128.479L408.13 129.169L409.957 129.287L411.004 130.031L411.448 130.003L412.017 129.327L411.91 128.837L412.623 125.913L412.515 125.19L412.123 125.141L410.708 123.908L409.426 123.27L406.528 122.899L405.822 122.618L405.402 122.233L405.109 121.149L406.133 118.016L406.226 116.181L405.273 113.783L405.449 112.671L405.31 111.146L405.791 108.792L406.279 107.523L406.386 103.517L406.721 102.894L407.944 102.292L408.618 101.308L408.069 101.206L407.568 100.382L408.917 98.9791L410.191 97.9897L410.137 97.7064L409.298 97.2455L408.828 97.1701L406.898 97.4399L405.749 97.2915L404.679 97.6075L401.86 97.5726L401.675 97.1859L401.986 96.771L403.286 96.0391L403.388 95.4443L403.254 94.9024L402.57 94.2346L402.205 94.2109L401.737 94.4718L401.423 94.3965L401.158 93.7253L400.913 92.0725L400.41 91.0674L399.858 90.6064L398.55 90.0454L398.442 89.4776L399.606 87.9194L399.313 86.8872L399.103 86.6039L398.211 86.0665L397.657 85.1401L396.56 85.0951L396.248 85.3031L395.809 86.0553L395.209 86.3431L393.878 86.3262L392.519 86.1531L391.707 85.8484L390.5 84.9771L389.978 85.0063L389.51 85.4223L388.833 85.6854L389.022 86.6916L388.921 87.1323L388.085 87.0851L387.669 87.2942L387.275 86.9356L386.56 85.492L385.827 85.1873L385.064 84.416L384.666 83.4109L384.868 82.453L384.63 81.9898L383.421 80.9116L383.209 80.3966L383.277 78.8451L382.612 77.0406L381.859 73.9949L380.841 72.2477L379.395 71.364L376.93 70.4038L374.021 69.5246L373.126 68.7579L371.399 65.8268L369.874 64.9105L367.279 64.1583L366.122 63.3421L363.078 62.0784L362.266 61.957L361.215 61.3465L359.93 60.9192L358.821 59.8444L358.366 58.6852L357.998 55.897L356.211 52.3206L356.098 51.5729L356.409 51.2075L357.609 50.5666L357.459 50.0978L357.688 49.2433L357.307 47.3073L357.797 46.5023L357.532 45.8839L357.737 45.4173L358.391 45.4646L359.034 44.0637L359.371 43.6994L359.998 43.6432L360.544 43.1226L360.875 42.0085L362.15 41.0944L362.849 39.9521L363.051 39.0976L362.193 36.3116L362.489 33.8022L363.773 30.5619L364.419 29.5231L364.244 27.0687L364.695 24.3771L365.242 24.0365L366.758 23.8195L368.032 22.5951L369.003 22.3466L369.359 22.0296L369.613 21.201L369.067 18.7759L368.911 13.4512L368.663 12.265L368.566 10.275L368.005 9.11697L366.83 7.93196L365.762 7.66437L363.901 7.55531L362.073 7.64751L360.504 7.92071L357.767 9.08324L356.591 9.19792L355.467 9.51947L353.449 9.35757L353.078 8.92247L352.791 8.89886L351.63 8.13433L349.928 8.07362L349.61 7.68911L349.445 6.83801L350.043 3.85861L335.284 0L334.581 0.446348L334.258 2.02712L333.956 2.56791L333.428 2.54767L333.247 3.33806L333.539 3.826L334.485 4.12956L334.958 4.48709L335.205 5.77779L333.587 6.51421L330.973 7.00103L330.374 7.31584L329.065 7.3788L328.074 7.80041L327.762 8.19055L327.228 10.0299L326.788 10.4481L326.107 10.5313L325.823 10.8956L325.724 11.6455L325.411 11.8288L325.331 11.5455L324.034 9.95345L323.921 8.9978L323.39 8.14895L323.329 7.14157L323.66 6.44001L323.019 6.41077L321.888 5.93182L321.076 5.99141L317.359 8.43564L317.193 9.91185L316.508 11.8322L316.21 13.3342L316.818 16.1461L314.711 17.3064L312.53 16.6329L311.747 16.7701L310.816 17.7629L309.62 18.4228L308.961 20.2656L308.183 20.9716L307.61 21.2628L306.693 21.1436L305.926 20.4286L303.988 22.5445L303.217 21.545L301.961 21.5844L300.926 22.5782L299.947 23.9083L299.106 25.8309L298.967 27.2542L299.043 29.3218L297.38 30.2977L296.172 30.4821L295.378 27.5263L294.739 26.3941L294.082 26.1164L292.982 25.9973L292.795 25.6892L292.867 24.9382L292.707 24.6301L292.101 24.222L291.661 24.6908L291.458 25.3395L290.326 24.6773L290.244 24.3423L290.629 23.5373L291.147 22.9639L291.877 22.7244L292.16 22.2308L292.206 21.6361L290.976 21.6473L290.503 21.3932L290.163 21.4742L289.673 22.1757L289.36 22.2567L288.568 21.5922L288.758 20.5264L281.69 20.4511L280.906 20.6411L279.964 20.6006L279.621 20.3982L275.065 20.2982L274.475 19.1682H272.356L271.9 20.4409L269.233 20.6804L267.87 22.4557L267.798 22.9729L267.216 24.0837L265.874 24.005L264.443 22.6536L262.399 22.4467L262.094 21.1571L261.113 20.1351L257.5 20.1295L256.511 20.505L253.763 20.5399L252.495 19.6517L246.681 19.4167L240.136 19.374L239.877 21.4202L236.524 21.2842L234.977 21.0717L231.704 21.0121L227.065 20.559L219.342 20.4589L218.712 20.2869L214.266 20.5568L212.852 20.5241L212.851 20.4218L208.901 20.5815L205.032 17.457L198.751 17.5223L196.34 17.3761L194.929 17.5268L193.591 17.3907L187.597 17.3514L187.353 18.5184L187.549 19.3425L187.303 20.4061L186.943 20.7996L184.243 20.5298L183.748 20.6669L180.985 19.7259L179.389 19.8282L174.492 21.2729L173.091 22.0701L170.187 22.1668L168.58 21.4944L164.679 21.4517L148.583 21.554L144.924 21.8463L143.611 21.5574L135.789 21.8418L135.4 22.0296L134.298 21.8924L123.384 21.9734L119.056 21.3752L118.22 21.4933L116.852 21.129L112.475 20.7906L107.875 21.1819L103.584 21.2831L99.4716 21.0975L84.3205 21.3449L81.3523 20.8041L79.0992 20.7423L78.6832 20.8536L76.1333 20.3319L72.6704 19.9316L65.1354 20.1239L62.6968 19.8867L62.3066 20.0486L61.9109 19.9013L55.4416 19.6888L54.3274 18.9602L47.3433 19.0165L46.4506 21.9745L46.4629 22.6468L46.1729 23.996L46.7406 25.0461L48.1235 26.2637L48.6115 27.2374L48.7014 27.8569L48.3855 29.2319L47.4242 31.1095L46.6293 32.0291L45.0947 32.5463L44.2818 32.4564L43.6601 32.8038L43.4048 33.1444L43.2722 34.5431L43.4307 36.0395L43.1069 37.0019L41.8859 38.9357L41.8128 40.6953L40.6593 44.8777L39.7981 46.4697L37.7024 49.1433L36.0744 50.2833L35.6134 50.7825L35.311 51.4346L35.1783 52.7804L35.7787 52.6927L36.5769 53.455L38.0981 53.7383L38.6029 54.143L38.6918 54.7614L38.1937 56.1151L38.0801 57.0471L37.6214 57.7015L35.3796 59.5509L34.9478 60.2042L34.8331 61.1373L35.1986 63.043L37.1211 66.2417L38.4838 69.32L39.3416 70.4938L39.6677 72.6603L40.3051 74.6649L41.4238 75.9129L41.9354 76.7314L43.3464 81.1016L43.9052 81.7379L45.9064 82.5823L47.9897 83.71L50.4025 84.289L52.8613 84.479L53.8609 84.9534L53.3797 85.7371L52.1744 86.9986L51.2379 87.2212L50.5689 87.8013L49.1793 87.4887L48.1404 87.7912L47.2927 88.6074L46.762 89.6238L46.0458 93.3846L45.2419 95.2082L45.1284 96.1144L45.6489 97.5276L46.7688 98.8262L50.2811 101.067L53.7754 102.377L54.812 103.419L55.2449 104.29L55.4158 105.089L55.2505 106.099L54.5186 107.508L51.8753 110.086L51.2491 111.596L51.6943 114.638L52.3565 116.695L52.3161 117.367L51.6055 119.99L51.9934 122.775L51.9338 123.887L52.1294 126.106L52.9468 128.109L53.0446 129.193L54.8716 132.262L55.3989 134.063L56.5153 136.809L56.5569 137.712L54.5647 141.597L54.378 142.815L54.477 144.002L55.0695 146.576L56.2489 148.443L58.24 150.554L58.4345 151.222L58.2625 151.872L57.7037 152.708L55.3337 154.298L54.7457 154.955L53.6056 156.835L52.8074 158.812L51.7382 160.277L51.5167 161.005L52.153 163.139L51.6921 165.059L52.0732 166.009L52.5274 166.646L54.5501 167.646L55.3742 168.588L55.8059 170.932L56.3478 172.162L54.2218 175.661L53.8058 177.193L53.5415 178.49L54.4174 180.904L55.0571 181.771L56.4063 183.014L58.5683 184.579L60.9024 185.573L63.531 188.526L63.6434 190.566L63.2983 194.68L63.4039 196.331L64.7441 200.08L64.8239 201.707L64.2314 203.628L62.0424 206.455L60.3391 207.258L60.0648 207.909L59.9366 209.564L60.3346 211.495L61.1283 212.257L63.1712 213.1L64.3967 213.261L65.1039 213.585L65.955 214.631L66.3609 215.579L66.4542 216.481L66.2642 217.518L65.8594 218.197L65.295 218.645L62.2538 220.245L60.7191 221.77L60.2626 222.423L58.9944 225.803L57.9758 227.034L57.0033 227.929L54.6749 228.562L53.8833 229.427L54.5534 230.553L55.0268 232.353L55.0942 233.282L54.6883 235.355L53.5022 237.338L53.4887 238.113L53.7406 239.141L54.5916 240.238L55.6215 241.176L56.5131 241.625L57.4013 241.869L61.6163 242.185L62.7406 242.631L64.4057 242.681L65.5547 243.048L67.1299 243.952L67.3716 244.439L67.3266 244.827L66.5475 246.416L66.4823 250.238L66.8949 251.549L67.3997 252.238L70.0778 253.924L70.5298 254.511L70.6467 255.309L70.5759 259.608L71.21 261.065L71.7193 261.882L72.6176 262.717L73.3147 263.84L73.6969 264.841L73.5036 265.541L72.5119 266.67L71.8969 267.069L71.1717 267.212L70.4342 268.026L70.342 268.596L70.7479 269.287L71.5282 269.503L73.3788 268.539L74.0252 268.424L74.7021 268.514L75.1315 269.229L76.6752 278.005L76.6179 279.09L77.3858 282.614L77.8917 286.064L77.9479 287.637L79.4252 295.794L80.4742 300.498L81.2163 302.705L82.9657 311.604L83.0826 313.693L84.4306 319.217L84.7724 322.205L84.931 327.931L85.1896 329.243L85.5055 333.701L83.9247 335.021L82.9196 335.323L78.5843 337.622L76.4346 337.663L74.3513 337.135L73.4833 337.796L72.6333 339.411L71.5326 340.078L71.3134 340.83L71.6485 342.088L74.6425 346.961L75.0067 348.399L74.9764 349.509L74.5874 350.858L73.6767 352.01L73.164 352.278L70.1869 352.282L65.476 353.739L64.4585 354.687L63.5523 356.775L62.5573 357.68L58.7673 362.548L57.3563 365.989L56.3422 364.908L55.7407 363.567L54.9346 363.003L53.3527 362.44L53.2054 364.662L52.8209 365.67L52.1474 371.999L51.402 373.552L50.1889 374.667L49.2849 375.212L47.7896 377L47.7964 378.473L47.6435 379.17L47.2578 379.947L45.7366 381.477L45.5118 383.544L43.4015 386.91L42.9675 388.332L41.8882 390.505L41.2484 392.316L37.3212 400.779L36.0586 414.501L35.3931 416.312L34.9298 416.986L34.4194 418.616L34.3047 422.027L33.3581 424.847L32.1865 429.296L31.2399 438.034L31.3208 438.86L31.8166 439.814L33.8494 442.777L32.1517 445.472L28.5101 450.361L25.6645 453.64L24.6874 461.14L24.1972 461.504L20.1127 462.554L18.5634 463.285L13.6592 472.016L12.6821 473.391L12.5821 474.063L11.2442 475.904L2.92319 489.668L2.5859 495.072L3.05586 496.078L5.08072 497.569L5.32133 499.197L5.97117 499.84L6.54569 500.95L6.57267 501.311L6.10834 501.52L5.77554 502.4L5.38878 502.506L4.12619 503.83L2.87484 507.171L2.17777 507.433L1.7674 508.261L0.789261 509.274L0.308059 511.656L0 512.096L0.0562151 513.105L1.3278 514.082L2.39139 514.568L2.11032 521.06L6.96056 541.106L7.32821 542.423L7.74532 543.119L7.83189 544.981L8.37943 546.117L8.82128 546.452L9.08887 548.468L9.2384 552.967L8.77856 554.262L9.83765 554.103L11.4409 554.122L12.482 555.669L12.7968 556.702L14.5192 560.212L17.0219 564.858L18.3756 572.819L18.4869 574.603L18.8793 575.843L19.808 581.22L21.6102 585.481L21.8992 586.514L23.5148 589.56L23.5957 590.284L26.6494 597.126L26.6426 601.706L26.3435 604.113L26.4515 605.173L26.1592 609.34L25.8792 610.221L25.8455 614.516L27.0339 614.511L27.5004 614.716L28.7923 614.633L29.7209 614.319L30.8576 614.469L33.5706 614.38L32.3653 622.432L33.0916 623.128L34.6949 623.432L35.5527 624.695L36.2003 625.262L36.7692 625.234L37.6023 624.411L39.1066 624.194L39.535 623.907L40.3231 623.906L40.8122 622.959L42.3098 621.934L42.9799 621.827L43.2339 621.101L43.8523 620.865L44.2627 620.318L44.8113 621.325L46.6248 622.09L48.4923 623.346L49.8358 623.442L50.923 624.453L51.6977 624.398L52.4454 623.955L52.786 625.221L53.871 625.192L54.1307 625.372L54.0059 626.537L54.7041 626.586L55.3787 627.334L54.4927 631.839L54.5242 633.288L55.6283 638.2L56.7672 645.182L57.8105 647.688L58.8516 649.548L59.2182 650.995L59.479 651.435L59.4936 655.238L59.316 656.093L57.6104 655.711L56.2691 656.157L54.9728 654.919L54.6108 654.921L53.7113 656.037L54.3083 656.837L53.6652 657.306L54.3612 658.605L54.2195 660.883L53.9384 661.351L52.8726 661.684L52.659 662.114L52.8737 663.046L53.1604 663.476L54.6636 664.479L54.4489 664.767L53.591 664.624L54.378 665.985L56.096 665.411L56.4153 666.791L55.8464 666.794L56.2376 667.595L55.3078 667.573L55.1021 667.988L55.2336 668.297L55.9824 668.372L55.9835 668.734L55.6226 668.892L55.834 670.21L55.2921 670.238L55.1133 670.602L55.7609 671.168L55.9194 671.996L56.4524 671.584L56.7627 671.685L57.1607 673.52L57.5238 673.83L57.58 674.45L57.2259 675.668L57.4597 676.055L58.1579 676.232L57.8521 676.803L58.1366 676.982L58.4975 676.878L59.334 678.581L58.9764 679.23L58.4862 679.206L57.8971 680.038L57.8769 681.048L57.697 681.256L56.3287 681.212L56.1241 681.497L55.9251 682.689L55.5113 682.64L54.6018 681.713L53.4134 681.565L53.0019 681.748L52.6871 680.999L52.2542 682.063L51.9203 682.246L51.2997 682.12L50.4452 681.686L50.1653 682.361L49.8797 681.837L49.7009 681.873L49.1995 682.626L48.0898 681.265L47.4827 681.407L47.196 681.659L46.9464 682.305L45.8727 682.378L44.763 681.518L43.3284 680.741L42.4503 680.641L41.8061 680.877L41.263 680.645L40.9291 681.294L39.354 681.015L37.6248 681.281L36.4128 682.202L36.749 683.89L36.5174 684.124L35.0445 683.9L34.0709 685.07L33.5031 685.151L32.6239 684.821L31.0229 684.804L28.1413 682.234L26.8967 681.465L25.8376 681.42L24.8538 680.831L24.5199 681.195L22.6502 681.163L22.7267 682.075L20.9008 681.109L20.4365 681.612L20.3656 682.077L20.1149 682.257L17.6819 681.542L17.1456 681.83L16.1787 681.616L16.2664 683.447L21.4472 685.2L25.0146 686.057L33.0005 687.25L35.0164 687.627L39.8779 688.892L40.91 688.807L45.3308 689.894L46.5192 690.016L51.1985 691.023L54.4792 691.47L58.8741 692.506L62.9823 693.129L66.371 694.172L69.4988 694.955L70.7895 695.052L73.4541 695.865L84.7713 697.82L89.2438 699.012L92.6291 699.588L94.3324 700.373L97.2837 701.09L98.8847 701.238L101.107 701.82L102.195 702.333L110.962 705.418L111.07 706.349L112.182 706.757L112.65 707.273L113.433 709.131L113.622 710.502L116.416 711.807L117.764 712.965L118.495 714.308L120.017 714.403L120.975 714.838L121.831 715.585L122.274 716.41L122.384 717.678L123.154 717.002L123.953 716.971L126.127 717.866L127.495 717.859L128.763 718.759L128.92 719.198L128.437 720.547L128.491 720.934L128.931 721.01L129.14 721.656L130.044 721.729L130.432 721.96L130.77 722.424L130.801 723.667L131.06 723.665L131.78 722.989L132.345 722.727L132.965 722.775L133.458 723.265L134.231 723.002L134.593 723.234L134.903 723.18L136.376 721.915L137.096 722.123L137.561 721.761L138.275 721.533L142.92 721.562L144.105 721.064L144.616 720L146.543 718.23L147.004 717.556L147.726 717.268L147.85 716.439L148.158 716.049L150.476 715.003L150.677 713.966L153.515 713.565L154.465 712.576L155.752 711.949L156.057 710.99L156.679 711.608L159.464 711.078L160.597 709.834L162.243 709.098L162.472 708.554L163.141 708.162L163.891 708.521L164.821 708.542L166.105 708.148L168.174 708.19L169 707.953L169.436 707.537L169.557 705.828L170.118 704.454L169.986 703.782L170.216 703.341L171.065 702.768L173.797 701.668L173.95 701.409L173.817 700.529L174.251 699.648L175.77 698.632L178.012 697.87L180.18 697.68L180.901 697.393L182.619 694.874L182.436 694.331L182.585 693.063L182.453 692.468L183.07 691.896L184.718 690.983L185.827 690.564L186.806 690.404L189.622 690.495L190.807 689.946L198.03 688.881L198.828 688.541L203.471 687.511L204.321 686.887L208.242 686.327L208.395 685.964L209.3 686.09L210.047 685.673L210.693 685.876L212.628 685.507L214.02 685.087L214.481 684.256L216.672 683.472L219.666 683.252L222.298 682.853L225.809 682.762L227.766 681.486L229.415 680.781L230.238 679.975L230.986 679.713L231.524 678.728L232.22 678.544L232.737 678.646L234.825 677.758L235.287 677.006L236.034 676.589L236.342 676.147L236.832 675.835L239.256 675.127L242.193 673.356L243.17 672.421L244.254 672.132L245.622 672.1L247.686 671.782L252.206 671.972L252.849 671.349L256.489 671.439L260.358 671.237L260.767 671.773L261.937 671.849L263.655 671.046L264.804 671.254L266.869 671.247L272.573 670.399L274.199 670.29L275.051 670.054L275.874 669.172L276.854 668.832L277.393 667.924L278.114 667.456L278.807 666.315L280.508 665.377L280.74 665.066L280.608 664.367L281.047 664.211L281.715 663.458L282.876 663.118L283.468 662.625L283.876 661.304L284.597 660.524L286.686 659.663L287.872 659.35L289.987 658.411L291.303 658.07L291.741 657.628L293.445 657.597L295.948 657.02L296.229 656.087L297.155 655.101L297.566 654.298L298.513 654.521L303.219 653.296L305.232 653.16L306.961 652.431L309.025 651.984L310.264 651.488L310.649 651.022L311.264 649.546L312.448 648.171L313.35 647.573L313.582 647.158L313.321 646.511L313.525 645.838L314.969 644.928L317.703 643.885L319.558 642.171L320.845 640.564L322.728 639.808L324.505 638.432L328.35 637.256L329.513 637.201L342.085 634.372L342.728 633.386L345.619 632.577L346.858 632.418L349.155 631.351L351.246 630.983L352.174 630.464L353.8 629.865L354.883 629.086L356.431 628.383L357.41 627.707L358.75 626.437L359.55 626.021L361.538 625.369L363.166 625.287L366.314 623.934L367.448 623.052L368.171 622.817L368.634 622.376L369.381 621.055L370.36 620.353L370.54 620.017L370.411 619.758L370.822 619.007L372.034 618.332L373.245 616.958L373.813 616.568L376.059 616.122L377.505 615.524L379.184 615.34L380.834 614.224L381.658 613.108L386.176 611.054L386.511 610.77L390.333 610.114L391.469 609.594L392.81 608.53L395.288 607.749L396.58 607.643L398.206 606.76L402.856 606L405.181 605.969L406.421 605.682L407.635 605.68L413.786 606.547L415.105 606.906L417.56 607.264L432.6 607.909L436.683 607.825L438.595 608.08L439.423 608.415L441.128 608.517L442.755 608.28L443.867 608.46L448.182 608.376L449.655 608.658L451.799 608.344L452.859 608.601L457.561 608.103L459.265 607.661L461.589 606.803L468.048 606.432L469.986 605.913L472.31 604.72L473.188 603.942L475.071 601.87L476.309 599.928L477.39 597.676L477.648 596.512L477.386 594.158L477.589 592.295L477.95 591.363L481.922 585.409L483.598 582.122L485.3 579.846Z" fill="#008E07"/>
</svg>
